# xmcd
#
# Track frame offsets: 
#        150
#        25025
#        44227
#        67125
#        87395
#        107857
#        126557
#        140832
#        156310
#        171132
#        191310
#
# Disc length: 2841 seconds
#
# Revision: 4
# Processed by: cddbd v1.4PL0 Copyright (c) Steve Scherf et al.
# Submitted via: ExactAudioCopy v0.90b4
#
DISCID=a80b170b
DTITLE=Kathy Mattea - Love Travels
DYEAR=1997
DGENRE=Country
TTITLE0=Love Travels
TTITLE1=Sending Me Angels
TTITLE2=Patiently Waiting
TTITLE3=If That's What You Call Love
TTITLE4=Further And Further Away
TTITLE5=455 Rocket
TTITLE6=I'm On Your Side
TTITLE7=The Bridge
TTITLE8=All Roads To The River
TTITLE9=The End Of The Line
TTITLE10=Beautiful Fool
EXTD=
EXTT0=
EXTT1=
EXTT2=
EXTT3=
EXTT4=
EXTT5=
EXTT6=
EXTT7=
EXTT8=
EXTT9=
EXTT10=
PLAYORDER=
